<svg id="visual" viewBox="0 0 900 600" preserveAspectRatio="none" xmlns="http://www.w3.org/2000/svg" xmlns:xlink="http://www.w3.org/1999/xlink" version="1.1"><path d="M0 187L15 186C30 185 60 183 90 184C120 185 150 189 180 183C210 177 240 161 270 157C300 153 330 161 360 163C390 165 420 161 450 150C480 139 510 121 540 111C570 101 600 99 630 103C660 107 690 117 720 128C750 139 780 151 810 149C840 147 870 131 885 123L900 115L900 0L885 0C870 0 840 0 810 0C780 0 750 0 720 0C690 0 660 0 630 0C600 0 570 0 540 0C510 0 480 0 450 0C420 0 390 0 360 0C330 0 300 0 270 0C240 0 210 0 180 0C150 0 120 0 90 0C60 0 30 0 15 0L0 0Z" fill="#eaa1b3"></path><path d="M0 217L15 223C30 229 60 241 90 245C120 249 150 245 180 236C210 227 240 213 270 211C300 209 330 219 360 218C390 217 420 205 450 190C480 175 510 157 540 149C570 141 600 143 630 150C660 157 690 169 720 184C750 199 780 217 810 217C840 217 870 199 885 190L900 181L900 113L885 121C870 129 840 145 810 147C780 149 750 137 720 126C690 115 660 105 630 101C600 97 570 99 540 109C510 119 480 137 450 148C420 159 390 163 360 161C330 159 300 151 270 155C240 159 210 175 180 181C150 187 120 183 90 182C60 181 30 183 15 184L0 185Z" fill="#e693a8"></path><path d="M0 307L15 311C30 315 60 323 90 334C120 345 150 359 180 346C210 333 240 293 270 277C300 261 330 269 360 279C390 289 420 301 450 295C480 289 510 265 540 251C570 237 600 233 630 236C660 239 690 249 720 260C750 271 780 283 810 281C840 279 870 263 885 255L900 247L900 179L885 188C870 197 840 215 810 215C780 215 750 197 720 182C690 167 660 155 630 148C600 141 570 139 540 147C510 155 480 173 450 188C420 203 390 215 360 216C330 217 300 207 270 209C240 211 210 225 180 234C150 243 120 247 90 243C60 239 30 227 15 221L0 215Z" fill="#e2859c"></path><path d="M0 343L15 348C30 353 60 363 90 373C120 383 150 393 180 379C210 365 240 327 270 314C300 301 330 313 360 323C390 333 420 341 450 332C480 323 510 297 540 284C570 271 600 271 630 274C660 277 690 283 720 293C750 303 780 317 810 316C840 315 870 299 885 291L900 283L900 245L885 253C870 261 840 277 810 279C780 281 750 269 720 258C690 247 660 237 630 234C600 231 570 235 540 249C510 263 480 287 450 293C420 299 390 287 360 277C330 267 300 259 270 275C240 291 210 331 180 344C150 357 120 343 90 332C60 321 30 313 15 309L0 305Z" fill="#dd7691"></path><path d="M0 403L15 405C30 407 60 411 90 422C120 433 150 451 180 443C210 435 240 401 270 390C300 379 330 391 360 403C390 415 420 427 450 420C480 413 510 387 540 371C570 355 600 349 630 351C660 353 690 363 720 372C750 381 780 389 810 383C840 377 870 357 885 347L900 337L900 281L885 289C870 297 840 313 810 314C780 315 750 301 720 291C690 281 660 275 630 272C600 269 570 269 540 282C510 295 480 321 450 330C420 339 390 331 360 321C330 311 300 299 270 312C240 325 210 363 180 377C150 391 120 381 90 371C60 361 30 351 15 346L0 341Z" fill="#cb6a83"></path><path d="M0 553L15 552C30 551 60 549 90 551C120 553 150 559 180 558C210 557 240 549 270 543C300 537 330 533 360 533C390 533 420 537 450 538C480 539 510 537 540 539C570 541 600 547 630 549C660 551 690 549 720 549C750 549 780 551 810 553C840 555 870 557 885 558L900 559L900 335L885 345C870 355 840 375 810 381C780 387 750 379 720 370C690 361 660 351 630 349C600 347 570 353 540 369C510 385 480 411 450 418C420 425 390 413 360 401C330 389 300 377 270 388C240 399 210 433 180 441C150 449 120 431 90 420C60 409 30 405 15 403L0 401Z" fill="#b95e75"></path><path d="M0 601L15 601C30 601 60 601 90 601C120 601 150 601 180 601C210 601 240 601 270 601C300 601 330 601 360 601C390 601 420 601 450 601C480 601 510 601 540 601C570 601 600 601 630 601C660 601 690 601 720 601C750 601 780 601 810 601C840 601 870 601 885 601L900 601L900 557L885 556C870 555 840 553 810 551C780 549 750 547 720 547C690 547 660 549 630 547C600 545 570 539 540 537C510 535 480 537 450 536C420 535 390 531 360 531C330 531 300 535 270 541C240 547 210 555 180 556C150 557 120 551 90 549C60 547 30 549 15 550L0 551Z" fill="#a75267"></path></svg>